<svg width="19" height="18" viewBox="0 0 19 18" fill="none" xmlns="http://www.w3.org/2000/svg">
<mask id="mask0_7695_549" style="mask-type:alpha" maskUnits="userSpaceOnUse" x="0" y="0" width="19" height="18">
<rect x="0.5" width="18" height="18" fill="#D9D9D9"/>
</mask>
<g mask="url(#mask0_7695_549)">
<path d="M5 15.75C4.4375 15.75 3.88125 15.6125 3.33125 15.3375C2.78125 15.0625 2.3375 14.7 2 14.25C2.325 14.25 2.65625 14.1219 2.99375 13.8657C3.33125 13.6094 3.5 13.2375 3.5 12.75C3.5 12.125 3.71875 11.5938 4.15625 11.1563C4.59375 10.7188 5.125 10.5 5.75 10.5C6.375 10.5 6.90625 10.7188 7.34375 11.1563C7.78125 11.5938 8 12.125 8 12.75C8 13.575 7.70625 14.2813 7.11875 14.8688C6.53125 15.4563 5.825 15.75 5 15.75ZM5 14.25C5.4125 14.25 5.76562 14.1032 6.05937 13.8094C6.35312 13.5157 6.5 13.1625 6.5 12.75C6.5 12.5375 6.42813 12.3594 6.28438 12.2157C6.14063 12.0719 5.9625 12 5.75 12C5.5375 12 5.35937 12.0719 5.21562 12.2157C5.07187 12.3594 5 12.5375 5 12.75C5 13.0375 4.96562 13.3 4.89687 13.5375C4.82812 13.775 4.7375 14 4.625 14.2125C4.6875 14.2375 4.75 14.25 4.8125 14.25H5ZM9.3125 11.25L7.25 9.18753L13.9625 2.47503C14.1 2.33753 14.2719 2.26566 14.4781 2.25941C14.6844 2.25316 14.8625 2.32503 15.0125 2.47503L16.025 3.48753C16.175 3.63753 16.25 3.81253 16.25 4.01253C16.25 4.21253 16.175 4.38753 16.025 4.53753L9.3125 11.25Z" fill="#FFFFFF"/>
</g>
</svg>
