<svg width="19" height="18" viewBox="0 0 19 18" fill="none" xmlns="http://www.w3.org/2000/svg">
<mask id="mask0_7695_525" style="mask-type:alpha" maskUnits="userSpaceOnUse" x="0" y="0" width="19" height="18">
<rect x="0.5" width="18" height="18" fill="#D9D9D9"/>
</mask>
<g mask="url(#mask0_7695_525)">
<path d="M3.81875 7.5C3.99375 7.05 4.02188 6.65 3.90313 6.3C3.78438 5.95 3.58125 5.6 3.29375 5.25C2.88125 4.75 2.60938 4.27812 2.47813 3.83437C2.34688 3.39062 2.325 2.8625 2.4125 2.25H3.875C3.775 2.725 3.75938 3.1125 3.82813 3.4125C3.89688 3.7125 4.075 4.0375 4.3625 4.3875C4.8375 4.9625 5.14063 5.47188 5.27188 5.91563C5.40313 6.35938 5.40625 6.8875 5.28125 7.5H3.81875ZM6.81875 7.5C6.99375 7.05 7.025 6.65 6.9125 6.3C6.8 5.95 6.6 5.6 6.3125 5.25C5.9 4.75 5.625 4.27812 5.4875 3.83437C5.35 3.39062 5.325 2.8625 5.4125 2.25H6.875C6.775 2.725 6.75938 3.1125 6.82813 3.4125C6.89688 3.7125 7.075 4.0375 7.3625 4.3875C7.8375 4.9625 8.14063 5.47188 8.27188 5.91563C8.40313 6.35938 8.40625 6.8875 8.28125 7.5H6.81875ZM9.81875 7.5C9.99375 7.05 10.025 6.65 9.9125 6.3C9.8 5.95 9.6 5.6 9.3125 5.25C8.9 4.75 8.625 4.27812 8.4875 3.83437C8.35 3.39062 8.325 2.8625 8.4125 2.25H9.875C9.775 2.725 9.75938 3.1125 9.82813 3.4125C9.89688 3.7125 10.075 4.0375 10.3625 4.3875C10.8375 4.9625 11.1406 5.47188 11.2719 5.91563C11.4031 6.35938 11.4063 6.8875 11.2813 7.5H9.81875ZM4.25 15C3.625 15 3.09375 14.7813 2.65625 14.3438C2.21875 13.9062 2 13.375 2 12.75V9H12.5188C12.5813 8.575 12.75 8.20313 13.025 7.88438C13.3 7.56563 13.6375 7.3375 14.0375 7.2L17.5063 6.0375L17.975 7.4625L14.5063 8.625C14.3563 8.675 14.2344 8.76563 14.1406 8.89688C14.0469 9.02813 14 9.175 14 9.3375V12.75C14 13.375 13.7813 13.9062 13.3438 14.3438C12.9063 14.7813 12.375 15 11.75 15H4.25ZM4.25 13.5H11.75C11.9625 13.5 12.1406 13.4281 12.2844 13.2844C12.4281 13.1406 12.5 12.9625 12.5 12.75V10.5H3.5V12.75C3.5 12.9625 3.57188 13.1406 3.71563 13.2844C3.85938 13.4281 4.0375 13.5 4.25 13.5Z" fill="#FFFFFF"/>
</g>
</svg>
