<svg width="70" height="54" viewBox="0 0 70 54" fill="none" xmlns="http://www.w3.org/2000/svg">
<path d="M68.5933 14.8233C68.1337 14.3514 67.5793 13.9822 66.9667 13.74V2.48997C66.9667 1.85611 66.7149 1.2482 66.2667 0.799991C65.8184 0.351779 65.2105 0.0999756 64.5767 0.0999756C63.9428 0.0999756 63.3349 0.351779 62.8867 0.799991C62.4385 1.2482 62.1867 1.85611 62.1867 2.48997V13.1666H61.4867C60.3664 9.39418 58.0578 6.08436 54.9045 3.72992C51.7513 1.37548 47.922 0.102321 43.9867 0.0999756H26.4233C22.4881 0.102321 18.6587 1.37548 15.5055 3.72992C12.3522 6.08436 10.0436 9.39418 8.92334 13.1666H8V2.48997C8 1.85611 7.7482 1.2482 7.29999 0.799991C6.85178 0.351779 6.24387 0.0999756 5.61 0.0999756C4.97614 0.0999756 4.36823 0.351779 3.92002 0.799991C3.47181 1.2482 3.22 1.85611 3.22 2.48997V13.7733C2.63709 14.0211 2.10657 14.3774 1.65667 14.8233C0.598861 15.893 0.00386557 17.3356 3.92655e-06 18.84V35.16C-0.00087339 35.9053 0.145273 36.6434 0.430074 37.3321C0.714875 38.0208 1.13274 38.6466 1.65973 39.1736C2.18672 39.7006 2.81249 40.1184 3.50121 40.4032C4.18993 40.688 4.92806 40.8342 5.67334 40.8333H8.86C9.98027 44.6058 12.2889 47.9156 15.4421 50.27C18.5954 52.6245 22.4247 53.8976 26.36 53.9H43.6367C47.572 53.8976 51.4013 52.6245 54.5545 50.27C57.7078 47.9156 60.0164 44.6058 61.1367 40.8333H64.32C65.0653 40.8342 65.8034 40.688 66.4921 40.4032C67.1809 40.1184 67.8066 39.7006 68.3336 39.1736C68.8606 38.6466 69.2785 38.0208 69.5633 37.3321C69.8481 36.6434 69.9942 35.9053 69.9933 35.16V18.84C70.06 17.3733 69.5567 15.9333 68.5933 14.8233ZM8.32 36.0533H5.8C5.56221 36.0552 5.33332 35.963 5.16334 35.7966C5.00655 35.6209 4.91684 35.3954 4.91 35.16V18.84C4.90276 18.6123 4.98543 18.391 5.14013 18.2238C5.29483 18.0566 5.50913 17.957 5.73667 17.9466H8.32C8.3055 18.0852 8.3055 18.2248 8.32 18.3633V35.6366C8.3055 35.7752 8.3055 35.9148 8.32 36.0533ZM22.6633 25.28V16.6733C22.6211 16.2945 22.6593 15.9109 22.7754 15.5479C22.8915 15.1848 23.0829 14.8502 23.3371 14.5662C23.5913 14.2821 23.9025 14.0548 24.2506 13.8992C24.5986 13.7436 24.9755 13.6632 25.3567 13.6632C25.7379 13.6632 26.1148 13.7436 26.4628 13.8992C26.8108 14.0548 27.1221 14.2821 27.3762 14.5662C27.6304 14.8502 27.8218 15.1848 27.9379 15.5479C28.054 15.9109 28.0922 16.2945 28.05 16.6733V25.28C28.0922 25.6588 28.054 26.0423 27.9379 26.4054C27.8218 26.7685 27.6304 27.103 27.3762 27.3871C27.1221 27.6712 26.8108 27.8985 26.4628 28.0541C26.1148 28.2096 25.7379 28.2901 25.3567 28.2901C24.9755 28.2901 24.5986 28.2096 24.2506 28.0541C23.9025 27.8985 23.5913 27.6712 23.3371 27.3871C23.0829 27.103 22.8915 26.7685 22.7754 26.4054C22.6593 26.0423 22.6211 25.6588 22.6633 25.28ZM43.6367 40.3533C43.3873 40.6077 43.0896 40.8095 42.761 40.9469C42.4323 41.0843 42.0795 41.1545 41.7233 41.1533C41.0052 41.1483 40.3179 40.861 39.81 40.3533C39.2043 39.7348 38.4783 39.2469 37.6767 38.92C36.4865 38.4068 35.1681 38.2691 33.8976 38.5252C32.6271 38.7813 31.465 39.4191 30.5667 40.3533C30.3227 40.6337 30.0236 40.8609 29.6881 41.0207C29.3525 41.1806 28.9877 41.2697 28.6162 41.2826C28.2448 41.2955 27.8746 41.2318 27.5288 41.0955C27.183 40.9593 26.869 40.7533 26.6062 40.4905C26.3433 40.2277 26.1374 39.9136 26.0011 39.5678C25.8649 39.222 25.8012 38.8519 25.814 38.4804C25.8269 38.109 25.916 37.7441 26.0759 37.4086C26.2358 37.073 26.463 36.774 26.7433 36.53C27.8467 35.4166 29.1567 34.53 30.6 33.9166C32.7867 33.0105 35.1934 32.7752 37.5142 33.2406C39.835 33.7059 41.965 34.8509 43.6333 36.53C44.1388 37.0378 44.4225 37.7252 44.4225 38.4416C44.4225 39.1581 44.1421 39.8455 43.6367 40.3533ZM47.6467 25.28C47.622 25.9818 47.3259 26.6467 46.8207 27.1345C46.3155 27.6223 45.6406 27.8949 44.9383 27.8949C44.2361 27.8949 43.5612 27.6223 43.056 27.1345C42.5508 26.6467 42.2546 25.9818 42.23 25.28V16.6733C42.2546 15.9715 42.5508 15.3066 43.056 14.8188C43.5612 14.331 44.2361 14.0583 44.9383 14.0583C45.6406 14.0583 46.3155 14.331 46.8207 14.8188C47.3259 15.3066 47.622 15.9715 47.6467 16.6733V25.28ZM65.4633 35.16C65.4565 35.3954 65.3668 35.6209 65.21 35.7966C65.04 35.963 64.8111 36.0552 64.5733 36.0533H62.0533C62.0678 35.9148 62.0678 35.7752 62.0533 35.6366V18.2366C62.0678 18.0981 62.0678 17.9585 62.0533 17.82H64.6033C64.7166 17.8193 64.8288 17.8417 64.9331 17.8858C65.0374 17.93 65.1316 17.9949 65.21 18.0766C65.37 18.25 65.4633 18.4766 65.4633 18.71V35.16Z" fill="url(#paint0_linear_8131_243)"/>
<defs>
<linearGradient id="paint0_linear_8131_243" x1="9.56744e-07" y1="1.35113" x2="76.8585" y2="16.9795" gradientUnits="userSpaceOnUse">
<stop stop-color="#9700D1"/>
<stop offset="1" stop-color="#E8006E"/>
</linearGradient>
</defs>
</svg>
