<svg width="19" height="18" viewBox="0 0 19 18" fill="none" xmlns="http://www.w3.org/2000/svg">
<mask id="mask0_7695_567" style="mask-type:alpha" maskUnits="userSpaceOnUse" x="0" y="0" width="19" height="18">
<rect x="0.5" width="18" height="18" fill="#D9D9D9"/>
</mask>
<g mask="url(#mask0_7695_567)">
<path d="M2 14.25V12.75H9.5V14.25H2ZM2 10.5V9H5.75V10.5H2ZM2 6.75V5.25H5.75V6.75H2ZM15.95 14.25L13.0625 11.3625C12.7625 11.575 12.4344 11.7344 12.0781 11.8406C11.7219 11.9469 11.3625 12 11 12C9.9625 12 9.07813 11.6344 8.34688 10.9031C7.61563 10.1719 7.25 9.2875 7.25 8.25C7.25 7.2125 7.61563 6.32812 8.34688 5.59687C9.07813 4.86562 9.9625 4.5 11 4.5C12.0375 4.5 12.9219 4.86562 13.6531 5.59687C14.3844 6.32812 14.75 7.2125 14.75 8.25C14.75 8.6125 14.6969 8.97188 14.5906 9.32812C14.4844 9.68437 14.325 10.0125 14.1125 10.3125L17 13.2L15.95 14.25ZM11 10.5C11.625 10.5 12.1562 10.2812 12.5938 9.84375C13.0312 9.40625 13.25 8.875 13.25 8.25C13.25 7.625 13.0312 7.09375 12.5938 6.65625C12.1562 6.21875 11.625 6 11 6C10.375 6 9.84375 6.21875 9.40625 6.65625C8.96875 7.09375 8.75 7.625 8.75 8.25C8.75 8.875 8.96875 9.40625 9.40625 9.84375C9.84375 10.2812 10.375 10.5 11 10.5Z" fill="#F5F5F5" fill-opacity="0.9"/>
</g>
</svg>
