<svg width="22" height="18" viewBox="0 0 22 18" fill="none" xmlns="http://www.w3.org/2000/svg">
<path d="M21.5 5.27158C21.4624 6.5772 20.9256 7.81867 20 8.74033L16.7422 12C16.2678 12.4771 15.7034 12.8553 15.0817 13.1128C14.4601 13.3703 13.7935 13.5019 13.1207 13.5H13.116C12.4316 13.4995 11.7543 13.3619 11.1241 13.0953C10.4938 12.8286 9.92339 12.4384 9.44648 11.9476C8.96958 11.4568 8.59587 10.8754 8.34744 10.2377C8.099 9.60007 7.98088 8.91909 8.00005 8.23502C8.00564 8.03611 8.09002 7.84756 8.23463 7.71087C8.37924 7.57417 8.57223 7.50052 8.77114 7.50611C8.97005 7.51171 9.1586 7.59609 9.29529 7.7407C9.43199 7.88531 9.50564 8.0783 9.50005 8.27721C9.48639 8.76089 9.56982 9.2424 9.74542 9.69329C9.92101 10.1442 10.1852 10.5553 10.5224 10.9023C10.8596 11.2494 11.2629 11.5253 11.7085 11.7139C12.1541 11.9024 12.633 11.9997 13.1169 12C13.5926 12.0012 14.0638 11.9082 14.5032 11.7262C14.9427 11.5442 15.3417 11.2769 15.6772 10.9397L18.935 7.6819C19.6072 7.00128 19.9828 6.08237 19.9798 5.12581C19.9768 4.16924 19.5955 3.25271 18.9191 2.57631C18.2427 1.89991 17.3261 1.51859 16.3696 1.5156C15.413 1.5126 14.4941 1.88818 13.8135 2.56033L12.7822 3.59158C12.6404 3.7263 12.4516 3.80029 12.2561 3.79779C12.0605 3.79528 11.8736 3.71648 11.7353 3.57818C11.597 3.43988 11.5182 3.25302 11.5157 3.05745C11.5132 2.86188 11.5872 2.67307 11.7219 2.53127L12.7532 1.50002C13.2289 1.02408 13.7938 0.646532 14.4155 0.388946C15.0373 0.131359 15.7036 -0.0012207 16.3766 -0.0012207C17.0496 -0.0012207 17.7159 0.131359 18.3377 0.388946C18.9594 0.646532 19.5243 1.02408 20 1.50002C20.4928 1.99404 20.88 2.58318 21.1378 3.23157C21.3957 3.87996 21.5189 4.57405 21.5 5.27158ZM9.2188 14.4056L8.18755 15.4369C7.85119 15.7755 7.45089 16.0438 7.0099 16.2263C6.56892 16.4089 6.09605 16.5019 5.6188 16.5C4.90283 16.4994 4.2031 16.2867 3.60801 15.8886C3.01293 15.4905 2.54919 14.9249 2.2754 14.2634C2.00161 13.6018 1.93006 12.874 2.06977 12.1718C2.20948 11.4695 2.5542 10.8245 3.06036 10.3181L6.31255 7.06033C6.82478 6.54539 7.48002 6.19637 8.19316 6.0586C8.9063 5.92083 9.64439 6.00068 10.3116 6.28777C10.9788 6.57486 11.5442 7.05592 11.9345 7.6685C12.3247 8.28107 12.5218 8.99683 12.5 9.72283C12.4945 9.92175 12.5681 10.1147 12.7048 10.2593C12.8415 10.4039 13.03 10.4883 13.229 10.4939C13.4279 10.4995 13.6209 10.4259 13.7655 10.2892C13.9101 10.1525 13.9945 9.96393 14 9.76502C14.0181 9.06858 13.8944 8.37574 13.6365 7.72854C13.3787 7.08134 12.992 6.49327 12.5 6.00002C11.5393 5.03967 10.2364 4.50019 8.87801 4.50019C7.51958 4.50019 6.21675 5.03967 5.25598 6.00002L2.00005 9.25783C1.28401 9.97358 0.796218 10.8855 0.598307 11.8784C0.400395 12.8713 0.50125 13.9006 0.888126 14.8361C1.275 15.7717 1.93053 16.5716 2.77188 17.1348C3.61323 17.6979 4.60263 17.999 5.61505 18C6.28805 18.002 6.95475 17.8704 7.57656 17.6129C8.19837 17.3554 8.76292 16.9772 9.23755 16.5L10.2688 15.4688C10.3902 15.3258 10.4536 15.1426 10.4465 14.9551C10.4395 14.7677 10.3625 14.5898 10.2307 14.4563C10.0989 14.3229 9.92189 14.2437 9.73459 14.2343C9.54728 14.2249 9.36326 14.2861 9.2188 14.4056Z" fill="#303030"/>
</svg>
