<svg width="19" height="18" viewBox="0 0 19 18" fill="none" xmlns="http://www.w3.org/2000/svg">
<mask id="mask0_7695_573" style="mask-type:alpha" maskUnits="userSpaceOnUse" x="0" y="0" width="19" height="18">
<rect x="0.5" width="18" height="18" fill="#D9D9D9"/>
</mask>
<g mask="url(#mask0_7695_573)">
<path d="M7.25 15.75H4.25C3.8375 15.75 3.48438 15.6031 3.19063 15.3094C2.89688 15.0156 2.75 14.6625 2.75 14.25V9C2.75 8.0625 2.92813 7.18438 3.28438 6.36563C3.64063 5.54688 4.12188 4.83438 4.72813 4.22813C5.33438 3.62188 6.04688 3.14063 6.86563 2.78438C7.68438 2.42813 8.5625 2.25 9.5 2.25C10.4375 2.25 11.3156 2.42813 12.1344 2.78438C12.9531 3.14063 13.6656 3.62188 14.2719 4.22813C14.8781 4.83438 15.3594 5.54688 15.7156 6.36563C16.0719 7.18438 16.25 8.0625 16.25 9V14.25C16.25 14.6625 16.1031 15.0156 15.8094 15.3094C15.5156 15.6031 15.1625 15.75 14.75 15.75H11.75V9.75H14.75V9C14.75 7.5375 14.2406 6.29687 13.2219 5.27812C12.2031 4.25937 10.9625 3.75 9.5 3.75C8.0375 3.75 6.79687 4.25937 5.77812 5.27812C4.75937 6.29687 4.25 7.5375 4.25 9V9.75H7.25V15.75ZM5.75 11.25H4.25V14.25H5.75V11.25ZM13.25 11.25V14.25H14.75V11.25H13.25Z" fill="#FFFFFF"/>
</g>
</svg>
