<svg width="19" height="18" viewBox="0 0 19 18" fill="none" xmlns="http://www.w3.org/2000/svg">
<path d="M5 17.25C4.375 17.25 3.84375 17.0313 3.40625 16.5938C2.96875 16.1562 2.75 15.625 2.75 15C2.75 14.375 2.96875 13.8438 3.40625 13.4062C3.84375 12.9687 4.375 12.75 5 12.75C5.175 12.75 5.3375 12.7688 5.4875 12.8063C5.6375 12.8438 5.78125 12.8937 5.91875 12.9562L6.9875 11.625C6.6375 11.2375 6.39375 10.8 6.25625 10.3125C6.11875 9.825 6.0875 9.3375 6.1625 8.85L4.64375 8.34375C4.43125 8.65625 4.1625 8.90625 3.8375 9.09375C3.5125 9.28125 3.15 9.375 2.75 9.375C2.125 9.375 1.59375 9.15625 1.15625 8.71875C0.71875 8.28125 0.5 7.75 0.5 7.125C0.5 6.5 0.71875 5.96875 1.15625 5.53125C1.59375 5.09375 2.125 4.875 2.75 4.875C3.375 4.875 3.90625 5.09375 4.34375 5.53125C4.78125 5.96875 5 6.5 5 7.125V7.275L6.51875 7.8C6.76875 7.35 7.10313 6.96875 7.52188 6.65625C7.94063 6.34375 8.4125 6.14375 8.9375 6.05625V4.425C8.45 4.2875 8.04687 4.02188 7.72812 3.62813C7.40937 3.23438 7.25 2.775 7.25 2.25C7.25 1.625 7.46875 1.09375 7.90625 0.65625C8.34375 0.21875 8.875 0 9.5 0C10.125 0 10.6562 0.21875 11.0938 0.65625C11.5313 1.09375 11.75 1.625 11.75 2.25C11.75 2.775 11.5875 3.23438 11.2625 3.62813C10.9375 4.02188 10.5375 4.2875 10.0625 4.425V6.05625C10.5875 6.14375 11.0594 6.34375 11.4781 6.65625C11.8969 6.96875 12.2313 7.35 12.4813 7.8L14 7.275V7.125C14 6.5 14.2187 5.96875 14.6562 5.53125C15.0938 5.09375 15.625 4.875 16.25 4.875C16.875 4.875 17.4062 5.09375 17.8438 5.53125C18.2813 5.96875 18.5 6.5 18.5 7.125C18.5 7.75 18.2813 8.28125 17.8438 8.71875C17.4062 9.15625 16.875 9.375 16.25 9.375C15.85 9.375 15.4844 9.28125 15.1531 9.09375C14.8219 8.90625 14.5563 8.65625 14.3563 8.34375L12.8375 8.85C12.9125 9.3375 12.8813 9.82188 12.7438 10.3031C12.6063 10.7844 12.3625 11.225 12.0125 11.625L13.0812 12.9375C13.2187 12.875 13.3625 12.8281 13.5125 12.7969C13.6625 12.7656 13.825 12.75 14 12.75C14.625 12.75 15.1562 12.9687 15.5938 13.4062C16.0313 13.8438 16.25 14.375 16.25 15C16.25 15.625 16.0313 16.1562 15.5938 16.5938C15.1562 17.0313 14.625 17.25 14 17.25C13.375 17.25 12.8438 17.0313 12.4062 16.5938C11.9687 16.1562 11.75 15.625 11.75 15C11.75 14.75 11.7906 14.5094 11.8719 14.2781C11.9531 14.0469 12.0625 13.8375 12.2 13.65L11.1313 12.3188C10.6188 12.6063 10.0719 12.75 9.49063 12.75C8.90938 12.75 8.3625 12.6063 7.85 12.3188L6.8 13.65C6.9375 13.8375 7.04688 14.0469 7.12813 14.2781C7.20938 14.5094 7.25 14.75 7.25 15C7.25 15.625 7.03125 16.1562 6.59375 16.5938C6.15625 17.0313 5.625 17.25 5 17.25ZM2.75 7.875C2.9625 7.875 3.14063 7.80313 3.28438 7.65938C3.42813 7.51563 3.5 7.3375 3.5 7.125C3.5 6.9125 3.42813 6.73438 3.28438 6.59063C3.14063 6.44688 2.9625 6.375 2.75 6.375C2.5375 6.375 2.35938 6.44688 2.21563 6.59063C2.07188 6.73438 2 6.9125 2 7.125C2 7.3375 2.07188 7.51563 2.21563 7.65938C2.35938 7.80313 2.5375 7.875 2.75 7.875ZM5 15.75C5.2125 15.75 5.39063 15.6781 5.53438 15.5344C5.67813 15.3906 5.75 15.2125 5.75 15C5.75 14.7875 5.67813 14.6094 5.53438 14.4656C5.39063 14.3219 5.2125 14.25 5 14.25C4.7875 14.25 4.60937 14.3219 4.46562 14.4656C4.32187 14.6094 4.25 14.7875 4.25 15C4.25 15.2125 4.32187 15.3906 4.46562 15.5344C4.60937 15.6781 4.7875 15.75 5 15.75ZM9.5 3C9.7125 3 9.89063 2.92813 10.0344 2.78438C10.1781 2.64063 10.25 2.4625 10.25 2.25C10.25 2.0375 10.1781 1.85938 10.0344 1.71563C9.89063 1.57188 9.7125 1.5 9.5 1.5C9.2875 1.5 9.10938 1.57188 8.96563 1.71563C8.82188 1.85938 8.75 2.0375 8.75 2.25C8.75 2.4625 8.82188 2.64063 8.96563 2.78438C9.10938 2.92813 9.2875 3 9.5 3ZM9.5 11.25C10.025 11.25 10.4688 11.0688 10.8313 10.7063C11.1938 10.3438 11.375 9.9 11.375 9.375C11.375 8.85 11.1938 8.40625 10.8313 8.04375C10.4688 7.68125 10.025 7.5 9.5 7.5C8.975 7.5 8.53125 7.68125 8.16875 8.04375C7.80625 8.40625 7.625 8.85 7.625 9.375C7.625 9.9 7.80625 10.3438 8.16875 10.7063C8.53125 11.0688 8.975 11.25 9.5 11.25ZM14 15.75C14.2125 15.75 14.3906 15.6781 14.5344 15.5344C14.6781 15.3906 14.75 15.2125 14.75 15C14.75 14.7875 14.6781 14.6094 14.5344 14.4656C14.3906 14.3219 14.2125 14.25 14 14.25C13.7875 14.25 13.6094 14.3219 13.4656 14.4656C13.3219 14.6094 13.25 14.7875 13.25 15C13.25 15.2125 13.3219 15.3906 13.4656 15.5344C13.6094 15.6781 13.7875 15.75 14 15.75ZM16.25 7.875C16.4625 7.875 16.6406 7.80313 16.7844 7.65938C16.9281 7.51563 17 7.3375 17 7.125C17 6.9125 16.9281 6.73438 16.7844 6.59063C16.6406 6.44688 16.4625 6.375 16.25 6.375C16.0375 6.375 15.8594 6.44688 15.7156 6.59063C15.5719 6.73438 15.5 6.9125 15.5 7.125C15.5 7.3375 15.5719 7.51563 15.7156 7.65938C15.8594 7.80313 16.0375 7.875 16.25 7.875Z" fill="#FFFFFF"/>
</svg>
