<svg width="19" height="18" viewBox="0 0 19 18" fill="none" xmlns="http://www.w3.org/2000/svg">
<mask id="mask0_7695_561" style="mask-type:alpha" maskUnits="userSpaceOnUse" x="0" y="0" width="19" height="18">
<rect x="0.5" width="18" height="18" fill="#D9D9D9"/>
</mask>
<g mask="url(#mask0_7695_561)">
<path d="M9.5 16.5L9.125 9L6.5 8.25H1.25V6.75H5.75L11 3L11.975 4.14375L8.8625 6.375H11L16.85 3L17.75 4.05L11.375 9L11 16.5H9.5ZM5 6C4.5875 6 4.23438 5.85313 3.94063 5.55938C3.64688 5.26563 3.5 4.9125 3.5 4.5C3.5 4.0875 3.64688 3.73438 3.94063 3.44063C4.23438 3.14688 4.5875 3 5 3C5.4125 3 5.76562 3.14688 6.05937 3.44063C6.35312 3.73438 6.5 4.0875 6.5 4.5C6.5 4.9125 6.35312 5.26563 6.05937 5.55938C5.76562 5.85313 5.4125 6 5 6Z" fill="#FFFFFF"/>
</g>
</svg>
