<svg width="19" height="17" viewBox="0 0 19 17" fill="none" xmlns="http://www.w3.org/2000/svg">
<path d="M7.0625 16.8188C6.4875 16.8188 5.97188 16.6688 5.51562 16.3688C5.05937 16.0688 4.70625 15.6563 4.45625 15.1313C4.25625 15.3938 4.00313 15.597 3.69688 15.7407C3.39063 15.8845 3.075 15.9563 2.75 15.9563C2.1125 15.9563 1.57812 15.7376 1.14688 15.3001C0.715625 14.8626 0.5 14.3313 0.5 13.7063C0.5 13.1688 0.675 12.6845 1.025 12.2532C1.375 11.822 1.81875 11.5751 2.35625 11.5126C2.18125 11.2626 2.04688 10.997 1.95312 10.7157C1.85938 10.4345 1.8125 10.1376 1.8125 9.8251C1.8125 9.3251 1.94063 8.85635 2.19688 8.41885C2.45313 7.98135 2.8125 7.6251 3.275 7.3501C3.3375 7.5751 3.42187 7.81572 3.52812 8.07197C3.63437 8.32822 3.75625 8.5501 3.89375 8.7376C3.71875 8.8751 3.58125 9.04072 3.48125 9.23447C3.38125 9.42822 3.33125 9.63135 3.33125 9.84385C3.33125 10.5438 3.61875 10.9751 4.19375 11.1376C4.76875 11.3001 5.3125 11.4313 5.825 11.5313L6.18125 12.1313C6.04375 12.5313 5.925 12.872 5.825 13.1532C5.725 13.4345 5.675 13.6876 5.675 13.9126C5.675 14.2876 5.80938 14.6157 6.07812 14.897C6.34687 15.1782 6.675 15.3188 7.0625 15.3188C7.5375 15.3188 7.93125 15.1063 8.24375 14.6813C8.55625 14.2563 8.8125 13.7563 9.0125 13.1813C9.2125 12.6063 9.36563 12.0251 9.47188 11.4376C9.57813 10.8501 9.6625 10.4001 9.725 10.0876L11.1875 10.4813C11.075 11.0438 10.9375 11.6876 10.775 12.4126C10.6125 13.1376 10.3844 13.8282 10.0906 14.4845C9.79688 15.1407 9.40938 15.6938 8.92813 16.1438C8.44688 16.5938 7.825 16.8188 7.0625 16.8188ZM2.75 14.4563C2.9625 14.4563 3.14063 14.3845 3.28438 14.2407C3.42813 14.097 3.5 13.9188 3.5 13.7063C3.5 13.4938 3.42813 13.3157 3.28438 13.172C3.14063 13.0282 2.9625 12.9563 2.75 12.9563C2.5375 12.9563 2.35938 13.0282 2.21563 13.172C2.07188 13.3157 2 13.4938 2 13.7063C2 13.9188 2.07188 14.097 2.21563 14.2407C2.35938 14.3845 2.5375 14.4563 2.75 14.4563ZM8.075 11.4938C7.5 10.9813 6.97812 10.5032 6.50937 10.0595C6.04062 9.61572 5.6375 9.18447 5.3 8.76572C4.9625 8.34697 4.70313 7.92822 4.52188 7.50947C4.34063 7.09072 4.25 6.65635 4.25 6.20635C4.25 5.39385 4.52813 4.70947 5.08438 4.15322C5.64063 3.59697 6.325 3.31885 7.1375 3.31885C7.1875 3.31885 7.23125 3.32197 7.26875 3.32822C7.30625 3.33447 7.35 3.3376 7.4 3.3376C7.35 3.2126 7.3125 3.0876 7.2875 2.9626C7.2625 2.8376 7.25 2.70635 7.25 2.56885C7.25 1.94385 7.46875 1.4126 7.90625 0.975098C8.34375 0.537598 8.875 0.318848 9.5 0.318848C10.125 0.318848 10.6562 0.537598 11.0938 0.975098C11.5313 1.4126 11.75 1.94385 11.75 2.56885C11.75 2.70635 11.7375 2.83447 11.7125 2.95322C11.6875 3.07197 11.65 3.19385 11.6 3.31885H11.8625C12.6125 3.31885 13.25 3.55947 13.775 4.04072C14.3 4.52197 14.6125 5.11885 14.7125 5.83135C14.4875 5.79385 14.2344 5.7751 13.9531 5.7751C13.6719 5.7751 13.4125 5.7876 13.175 5.8126C13.0875 5.5251 12.9281 5.2876 12.6969 5.1001C12.4656 4.9126 12.1875 4.81885 11.8625 4.81885C11.425 4.81885 11.0844 4.94697 10.8406 5.20322C10.5969 5.45947 10.2625 5.83135 9.8375 6.31885H9.14375C8.70625 5.80635 8.36563 5.42822 8.12188 5.18447C7.87813 4.94072 7.55 4.81885 7.1375 4.81885C6.7375 4.81885 6.40625 4.9501 6.14375 5.2126C5.88125 5.4751 5.75 5.80635 5.75 6.20635C5.75 6.49385 5.83125 6.79072 5.99375 7.09697C6.15625 7.40322 6.38438 7.72822 6.67813 8.07197C6.97188 8.41572 7.32813 8.78135 7.74688 9.16885C8.16563 9.55635 8.63125 9.9751 9.14375 10.4251L8.075 11.4938ZM9.5 3.31885C9.7125 3.31885 9.89063 3.24697 10.0344 3.10322C10.1781 2.95947 10.25 2.78135 10.25 2.56885C10.25 2.35635 10.1781 2.17822 10.0344 2.03447C9.89063 1.89072 9.7125 1.81885 9.5 1.81885C9.2875 1.81885 9.10938 1.89072 8.96563 2.03447C8.82188 2.17822 8.75 2.35635 8.75 2.56885C8.75 2.78135 8.82188 2.95947 8.96563 3.10322C9.10938 3.24697 9.2875 3.31885 9.5 3.31885ZM11.9188 16.8188C11.6438 16.8188 11.3719 16.7813 11.1031 16.7063C10.8344 16.6313 10.575 16.5126 10.325 16.3501C10.4625 16.1751 10.6 15.9688 10.7375 15.7313C10.875 15.4938 11 15.2751 11.1125 15.0751C11.25 15.1626 11.3875 15.2251 11.525 15.2626C11.6625 15.3001 11.8 15.3188 11.9375 15.3188C12.3375 15.3188 12.6719 15.1782 12.9406 14.897C13.2094 14.6157 13.3438 14.2813 13.3438 13.8938C13.3438 13.6563 13.2938 13.4001 13.1938 13.1251C13.0938 12.8501 12.975 12.5126 12.8375 12.1126L13.1938 11.5126C13.7188 11.4126 14.2656 11.2813 14.8344 11.1188C15.4031 10.9563 15.6875 10.5251 15.6875 9.8251C15.6875 9.3251 15.5031 8.9626 15.1344 8.7376C14.7656 8.5126 14.3625 8.4001 13.925 8.4001C13.4 8.4001 12.7875 8.5001 12.0875 8.7001C11.3875 8.9001 10.5688 9.15635 9.63125 9.46885L9.2375 8.00635C10.2125 7.69385 11.0812 7.43135 11.8438 7.21885C12.6063 7.00635 13.3063 6.9001 13.9438 6.9001C14.8063 6.9001 15.5625 7.15635 16.2125 7.66885C16.8625 8.18135 17.1875 8.9001 17.1875 9.8251C17.1875 10.1376 17.1406 10.4345 17.0469 10.7157C16.9531 10.997 16.8187 11.2626 16.6437 11.5126C17.1812 11.5751 17.625 11.822 17.975 12.2532C18.325 12.6845 18.5 13.1688 18.5 13.7063C18.5 14.3313 18.2844 14.8626 17.8531 15.3001C17.4219 15.7376 16.8875 15.9563 16.25 15.9563C15.925 15.9563 15.6094 15.8845 15.3031 15.7407C14.9969 15.597 14.7438 15.3938 14.5438 15.1313C14.2938 15.6563 13.9406 16.0688 13.4844 16.3688C13.0281 16.6688 12.5063 16.8188 11.9188 16.8188ZM16.2687 14.4563C16.4812 14.4563 16.6563 14.3845 16.7938 14.2407C16.9313 14.097 17 13.9188 17 13.7063C17 13.4938 16.9281 13.3126 16.7844 13.1626C16.6406 13.0126 16.4625 12.9376 16.25 12.9376C16.0375 12.9376 15.8594 13.0095 15.7156 13.1532C15.5719 13.297 15.5 13.4751 15.5 13.6876C15.5 13.9001 15.575 14.0813 15.725 14.2313C15.875 14.3813 16.0562 14.4563 16.2687 14.4563Z" fill="#FFFFFF"/>
</svg>
