<svg width="11" height="12" viewBox="0 0 11 12" fill="none" xmlns="http://www.w3.org/2000/svg">
<path d="M2.5 7L3.4625 4.5H2L1.3375 5.5H0.5L1 3.75L0.5 2H1.3375L2 3H3.4625L2.5 0.5H3.5L5.225 3H6.75C6.95833 3 7.13542 3.07292 7.28125 3.21875C7.42708 3.36458 7.5 3.54167 7.5 3.75C7.5 3.95833 7.42708 4.13542 7.28125 4.28125C7.13542 4.42708 6.95833 4.5 6.75 4.5H5.225L3.5 7H2.5ZM7.5 11.5L5.775 9H4.25C4.04167 9 3.86458 8.92708 3.71875 8.78125C3.57292 8.63542 3.5 8.45833 3.5 8.25C3.5 8.04167 3.57292 7.86458 3.71875 7.71875C3.86458 7.57292 4.04167 7.5 4.25 7.5H5.775L7.5 5H8.5L7.5375 7.5H9L9.6625 6.5H10.5L10 8.25L10.5 10H9.6625L9 9H7.5375L8.5 11.5H7.5Z" fill="#FFFFFF"/>
</svg>
