<svg width="19" height="18" viewBox="0 0 19 18" fill="none" xmlns="http://www.w3.org/2000/svg">
<mask id="mask0_7695_513" style="mask-type:alpha" maskUnits="userSpaceOnUse" x="0" y="0" width="19" height="18">
<rect x="0.5" width="18" height="18" fill="#D9D9D9"/>
</mask>
<g mask="url(#mask0_7695_513)">
<path d="M5 10.5L6.44375 6.75H4.25L3.25625 8.25H2L2.75 5.625L2 3H3.25625L4.25 4.5H6.44375L5 0.75H6.5L9.0875 4.5H11.375C11.6875 4.5 11.9531 4.60937 12.1719 4.82812C12.3906 5.04688 12.5 5.3125 12.5 5.625C12.5 5.9375 12.3906 6.20312 12.1719 6.42188C11.9531 6.64063 11.6875 6.75 11.375 6.75H9.0875L6.5 10.5H5ZM12.5 17.25L9.9125 13.5H7.625C7.3125 13.5 7.04688 13.3906 6.82812 13.1719C6.60937 12.9531 6.5 12.6875 6.5 12.375C6.5 12.0625 6.60937 11.7969 6.82812 11.5781C7.04688 11.3594 7.3125 11.25 7.625 11.25H9.9125L12.5 7.5H14L12.5562 11.25H14.75L15.7438 9.75H17L16.25 12.375L17 15H15.7438L14.75 13.5H12.5562L14 17.25H12.5Z" fill="#FFFFFF"/>
</g>
</svg>
